<svg width="62" height="75" viewBox="0 0 62 75" fill="none" xmlns="http://www.w3.org/2000/svg">
<path d="M9.44829 12.8962C8.81126 12.621 6.89361 11.9202 6.59821 11.4181C6.52989 11.0358 6.8489 10.877 7.14362 10.7416C11.4973 8.74083 15.8555 6.74947 20.2135 4.75776L26.8771 1.72283C28.0429 1.19109 29.2013 0.623892 30.3804 0.122897C30.5716 0.0416237 30.7915 -0.011793 31.0008 0.002235C31.4518 0.0324515 36.9458 2.66153 37.8591 3.08101L51.0254 9.12358C51.6132 9.39567 54.773 10.7324 55.007 11.0597C55.0766 11.1571 55.1267 11.2604 55.1014 11.3832C55.0596 11.5836 54.9336 11.6872 54.7618 11.7788C53.7064 12.3418 52.5328 12.7709 51.4351 13.2537C49.6644 14.0324 47.8996 14.8548 46.1046 15.5746C46.109 16.4482 46.107 17.3219 46.0983 18.1954C44.4775 17.2199 43.2722 16.5332 41.5167 15.8052C35.9517 13.536 29.8106 13.088 23.9753 14.5256C21.7226 15.0905 19.5447 15.9199 17.4869 16.9967C16.7352 17.3886 15.9931 17.8692 15.2718 18.2418C15.2708 17.3456 15.2898 16.3614 15.2639 15.475L10.8692 13.5202C10.451 13.316 9.88421 13.087 9.44829 12.8962Z" fill="white"/>
<path d="M26.3673 21.0937C26.5257 21.0666 26.5467 21.0943 26.6525 21.1793C26.7534 21.4853 26.6998 24.1046 26.693 24.579C26.4277 24.6833 25.9055 24.8017 25.6138 24.8794C25.0297 25.0317 24.4534 25.2128 23.8871 25.4218C20.6129 26.6504 17.5311 29.0238 15.6246 31.9674C13.9789 34.5109 13.1237 37.485 13.1672 40.5142C13.1712 42.6801 13.6377 44.8201 14.5352 46.7914C15.5803 49.0511 16.8282 50.5059 18.6375 52.1613C21.487 54.7679 25.2303 56.3648 26.0943 60.5143C26.1735 60.8939 26.3833 62.0544 26.1881 62.3541C25.884 62.4884 23.3867 62.4281 22.8681 62.4295C22.7511 62.4285 22.7558 62.4217 22.6391 62.3935C22.5106 62.2612 22.475 61.7644 22.4357 61.5585C22.3689 61.1951 22.2651 60.8394 22.126 60.4968C21.8595 59.8297 21.4759 59.2157 20.9933 58.6838C20.0967 57.6893 18.877 56.8636 17.8003 56.0661C13.4283 52.8284 10.5355 48.7324 9.60662 43.3139C7.6876 32.1209 15.504 22.9138 26.3673 21.0937Z" fill="#FEC303"/>
<path d="M35.3785 21.0816C36.1819 21.1728 37.1769 21.4184 37.9608 21.6441C41.3897 22.6042 44.5179 24.4224 47.0496 26.927C50.5252 30.3562 52.473 35.0411 52.4525 39.9238C52.4087 46.4216 49.5316 51.7443 44.4323 55.6291C43.3214 56.4748 41.9473 57.4158 41.0238 58.4284C40.4316 59.0692 39.964 59.8147 39.6443 60.6263C39.4512 61.1104 39.3407 62.25 39.1709 62.4178C38.1024 62.4699 36.6558 62.4402 35.5707 62.429C35.4875 61.6325 35.6276 60.8 35.8393 60.0326C36.8494 56.3711 40.1304 54.8418 42.7706 52.5223C44.2732 51.2013 45.6808 49.7143 46.6545 47.9524C51.6278 38.9537 46.7557 28.1326 37.1175 25.1322C36.6485 24.9863 35.6773 24.8054 35.3128 24.5969C35.1951 24.3966 35.1892 24.0563 35.1951 23.8192C35.2155 22.9815 35.1386 22.1156 35.235 21.2849C35.2462 21.1886 35.3123 21.1509 35.3785 21.0816Z" fill="white"/>
<path d="M29.2229 15.1635C34.2166 14.9847 38.4241 15.7366 42.9298 18.0072C43.9584 18.5255 45.1865 19.2098 46.1193 19.879C46.1061 21.2256 46.1378 22.5793 46.0993 23.9218C41.4832 20.8087 37.7414 19.152 32.0888 18.8106C27.8975 18.4666 22.7629 19.7288 19.0614 21.666C17.5912 22.4355 16.6335 23.1316 15.2743 23.9345C15.2069 22.8505 15.2602 21.0641 15.2558 19.9332C16.0271 19.3858 17.2686 18.6836 18.1155 18.2492C21.5573 16.4446 25.3435 15.3927 29.2229 15.1635Z" fill="white"/>
<path d="M22.6373 64.3432C23.1772 64.3077 23.9261 64.3301 24.4885 64.3301L27.8371 64.3306C29.0371 64.3306 38.9179 64.2391 39.3217 64.3982C39.5908 64.5043 39.7981 64.7189 39.9197 64.9782C40.0482 65.2541 40.0813 65.5986 39.9635 65.8837C39.8078 66.2608 39.5183 66.4394 39.1573 66.5815C38.5208 66.6311 37.6357 66.6039 36.9759 66.6034L33.0955 66.6044C29.8077 66.6058 26.5127 66.6112 23.2247 66.6024C23.0572 66.5805 22.6034 66.5995 22.4638 66.5182C21.4367 65.9193 21.6394 64.7846 22.6373 64.3432Z" fill="white"/>
<path d="M33.384 32.8593C34.2506 32.8376 34.8535 33.4391 34.6 34.3133C34.2988 35.3546 33.9421 36.3754 33.5981 37.4033L31.7579 42.9084L30.4587 46.7705C30.2466 47.4001 30.0242 48.1022 29.7717 48.7153C29.6267 49.0666 29.2297 49.2194 28.8961 49.3367C28.3154 49.3673 27.7363 49.0263 27.6008 48.4448C27.5533 48.2409 27.6763 47.7402 27.746 47.531C28.2052 46.1545 28.6812 44.7834 29.1476 43.4093L31.2747 37.0552C31.5632 36.2029 31.8333 35.342 32.1252 34.4912C32.4104 33.6576 32.4274 33.0902 33.384 32.8593Z" fill="#FEC303"/>
<path d="M37.1623 35.2013C37.9 35.1737 38.4376 35.8088 38.9807 36.2668L40.9294 37.9138L42.794 39.4892C43.4275 40.0259 44.2381 40.522 44.0591 41.4881C43.9476 42.0511 43.3292 42.5459 42.8927 42.8937C41.216 44.231 39.5884 45.7433 37.8854 47.0391C37.6484 47.1476 37.4251 47.2006 37.1618 47.1753C36.8655 47.1466 36.5935 46.9996 36.4072 46.768C36.2227 46.5398 36.1366 46.2474 36.1678 45.9555C36.2412 45.2446 37.3876 44.5079 37.9335 44.0512L41.3119 41.2259C39.7315 39.7989 37.9924 38.5149 36.4344 37.0631C36.3356 36.9711 36.2339 36.7369 36.1989 36.6071C36.1191 36.3224 36.1609 36.0173 36.3152 35.765C36.5298 35.4107 36.7838 35.2993 37.1623 35.2013Z" fill="white"/>
<path d="M24.8247 35.1987C25.1827 35.19 25.562 35.3187 25.7926 35.6028C25.9844 35.8396 26.0744 36.1429 26.0429 36.446C26.0199 36.6694 25.9289 36.8804 25.7823 37.0505C25.5161 37.3623 24.5043 38.1747 24.1211 38.4972L20.8965 41.2205L24.1553 43.9394C24.5649 44.28 25.4688 44.9411 25.757 45.32C26.5069 46.3058 25.7668 47.2833 24.5855 47.1466C24.0467 46.9232 22.4128 45.4591 21.8699 45.0075L19.7265 43.2221C19.2584 42.8314 18.3041 42.1669 18.1794 41.5818C18.096 41.1745 18.1829 40.7507 18.4199 40.4089C18.6162 40.1309 20.5013 38.5711 20.8789 38.2502L22.9539 36.4892C23.4604 36.0603 24.1922 35.3185 24.8247 35.1987Z" fill="white"/>
<path d="M24.0493 68.0874C25.4036 68.0402 37.589 68.0072 37.9326 68.1492C38.2206 68.2684 38.441 68.4928 38.5447 68.7876C38.6444 69.0708 38.6566 69.4795 38.5087 69.7496C38.3393 70.0581 38.045 70.2332 37.7199 70.3335C37.1088 70.37 36.2904 70.3466 35.6675 70.3456L31.8917 70.3422C30.8285 70.3417 24.2928 70.44 23.8631 70.259C23.5937 70.1466 23.3818 69.9291 23.2764 69.6571C23.158 69.3477 23.1716 69.0032 23.314 68.7044C23.4772 68.3531 23.7022 68.2246 24.0493 68.0874Z" fill="white"/>
<path d="M9.44837 12.8962C9.88429 13.087 10.4511 13.316 10.8693 13.5202C10.9117 15.498 10.8492 17.5326 10.8828 19.5265C11.8411 20.2436 11.9659 21.1528 11.0848 22.0001C11.2734 22.7825 11.467 23.5637 11.6658 24.3437C11.767 24.7422 12.1442 25.946 11.9644 26.2604C11.689 26.3753 8.92491 26.3903 8.58781 26.3275C8.52226 26.3153 8.4031 26.2946 8.36977 26.2327C8.18444 25.8892 9.09628 22.6261 9.24654 21.9989C9.148 21.9152 9.01789 21.7885 8.94019 21.6856C8.71237 21.3787 8.61608 20.9938 8.67252 20.6158C8.75543 20.0908 9.04295 19.8114 9.4398 19.5158L9.44837 12.8962Z" fill="#FEC303"/>
<path d="M25.7346 71.8316C27.7039 71.7548 30.1084 71.819 32.1028 71.8195L34.4788 71.8175C34.8729 71.8175 36.1843 71.7246 36.3799 72.0633C36.7774 72.7518 35.5308 73.5926 35.0535 73.9132C32.2221 75.5204 28.1072 75.4425 25.6646 73.0218C25.2743 72.635 25.259 72.162 25.7346 71.8316Z" fill="#FEC303"/>
<path d="M60.7107 44.7274C60.8503 44.7282 60.9457 44.7294 61.0805 44.7722C61.3238 44.8502 61.5242 45.025 61.6342 45.2553C61.8123 45.6241 61.6678 46.1384 61.3082 46.3369C59.8743 47.1291 58.379 47.8229 56.9212 48.5737C56.4351 48.8238 55.9057 49.1017 55.4055 49.3109C54.2776 49.2773 54.0777 48.0818 54.7725 47.695C56.3188 46.8342 57.98 46.0854 59.5565 45.2704C59.9239 45.0805 60.3268 44.8762 60.7107 44.7274Z" fill="#FEC303"/>
<path d="M0.692278 44.7355C0.819275 44.728 0.98515 44.7219 1.10227 44.7757C2.93813 45.6192 4.73282 46.5656 6.53939 47.4707C7.14065 47.7718 7.19008 47.8142 7.38447 48.4389C7.21962 48.9391 7.16965 49.0749 6.68288 49.2958C6.54284 49.3041 6.34733 49.3158 6.21601 49.2554C4.53843 48.4788 2.9192 47.6045 1.25642 46.789C0.697972 46.515 -0.253921 46.1588 0.0631334 45.3278C0.1876 45.0016 0.381501 44.8709 0.692278 44.7355Z" fill="#FEC303"/>
<path d="M53.794 52.1238C54.0062 52.1107 54.1989 52.1394 54.4071 52.1797C55.6348 52.4177 56.8575 52.6615 58.0827 52.915C58.7333 53.0682 59.4344 53.1505 60.0655 53.3699C60.4679 53.5101 60.7029 53.9446 60.5652 54.3538C60.43 54.7533 60.2937 54.8491 59.9366 55.0403C59.6081 55.0661 57.9411 54.6944 57.5358 54.6126C56.4186 54.3874 55.2455 54.1562 54.1268 53.9159C53.8154 53.8327 53.4111 53.7816 53.2598 53.4492C52.9668 52.806 53.2174 52.3987 53.794 52.1238Z" fill="#FEC303"/>
<path d="M7.56475 52.1345C8.02802 52.0786 8.43932 52.3238 8.56218 52.7836C8.62407 53.0225 8.57985 53.277 8.44083 53.4809C8.103 53.984 6.77187 54.1017 6.16253 54.2244L2.16354 55.0262C1.10854 55.218 0.792901 53.7042 1.67385 53.3636C2.18349 53.167 3.07836 53.0332 3.63636 52.9218L7.56475 52.1345Z" fill="#FEC303"/>
<path d="M50.6673 56.1137C50.9753 56.0938 51.2483 56.104 51.493 56.3346C52.709 57.4781 53.8797 58.6746 55.0845 59.8312C55.2426 60.0322 55.6178 60.3017 55.7233 60.5338C56.0031 61.1493 55.6246 61.5513 55.1759 61.795C54.4636 61.8787 54.0923 61.3576 53.5839 60.8374C52.4754 59.7047 51.1427 58.5705 50.1277 57.3618C49.7876 56.957 50.2265 56.3565 50.6673 56.1137Z" fill="#FEC303"/>
<path d="M10.5765 56.1128C11.4937 56.0432 12.05 56.9288 11.4153 57.5939C10.3432 58.7169 9.19676 59.7845 8.0953 60.8802C7.82028 61.1537 7.38129 61.614 7.06614 61.795C6.09108 61.9356 5.55152 60.9712 6.18665 60.3002C7.21284 59.2162 8.34783 58.2109 9.39718 57.1453C9.70353 56.8339 10.203 56.2991 10.5765 56.1128Z" fill="#FEC303"/>
</svg>
