<svg width="304" height="65" viewBox="0 0 304 65" fill="none" xmlns="http://www.w3.org/2000/svg">
<path d="M8.18855 11.1767C7.63646 10.9382 5.9745 10.3309 5.71848 9.89571C5.65928 9.56438 5.93575 9.42674 6.19117 9.30938C9.96438 7.57539 13.7415 5.84954 17.5184 4.12339L23.2935 1.49312C24.3039 1.03228 25.3079 0.540706 26.3297 0.106511C26.4954 0.0360739 26.686 -0.0102206 26.8674 0.001937C27.2583 0.0281246 32.0197 2.30666 32.8112 2.67021L44.222 7.9071C44.7314 8.14291 47.47 9.30145 47.6728 9.58504C47.7331 9.66947 47.7765 9.759 47.7546 9.86543C47.7183 10.0391 47.6091 10.1289 47.4603 10.2083C46.5456 10.6962 45.5285 11.0681 44.5771 11.4866C43.0425 12.1614 41.513 12.8742 39.9574 13.498C39.9612 14.2551 39.9595 15.0123 39.9519 15.7694C38.5472 14.9239 37.5026 14.3288 35.9811 13.6978C31.1582 11.7312 25.8359 11.3429 20.7786 12.5888C18.8263 13.0784 16.9388 13.7973 15.1554 14.7305C14.5039 15.0701 13.8608 15.4866 13.2356 15.8096C13.2347 15.0329 13.2512 14.1799 13.2288 13.4117L9.42 11.7175C9.05755 11.5406 8.56636 11.3421 8.18855 11.1767Z" fill="white"/>
<path d="M22.8517 18.2812C22.989 18.2577 23.0072 18.2817 23.0989 18.3554C23.1864 18.6206 23.1399 20.8907 23.134 21.3018C22.9041 21.3922 22.4515 21.4948 22.1987 21.5622C21.6924 21.6942 21.193 21.851 20.7022 22.0322C17.8645 23.097 15.1937 25.154 13.5414 27.7051C12.1151 29.9094 11.3739 32.487 11.4116 35.1123C11.4151 36.9894 11.8194 38.8441 12.5972 40.5525C13.503 42.5109 14.5845 43.7718 16.1526 45.2064C18.6222 47.4655 21.8663 48.8495 22.6152 52.4458C22.6837 52.7747 22.8656 53.7805 22.6964 54.0402C22.4329 54.1566 20.2686 54.1043 19.8191 54.1056C19.7177 54.1047 19.7217 54.0988 19.6206 54.0744C19.5092 53.9597 19.4784 53.5291 19.4444 53.3507C19.3864 53.0357 19.2965 52.7275 19.1759 52.4306C18.9449 51.8524 18.6125 51.3202 18.1942 50.8593C17.4172 49.9974 16.3602 49.2818 15.427 48.5906C11.6379 45.7846 9.13086 42.2347 8.32579 37.5387C6.66265 27.8381 13.4369 19.8586 22.8517 18.2812Z" fill="#FEC303"/>
<path d="M30.6614 18.2707C31.3576 18.3498 32.22 18.5626 32.8994 18.7582C35.8711 19.5903 38.5822 21.166 40.7763 23.3367C43.7885 26.3087 45.4766 30.369 45.4589 34.6006C45.4209 40.232 42.9274 44.845 38.508 48.2119C37.5453 48.9448 36.3544 49.7604 35.554 50.6379C35.0408 51.1933 34.6355 51.8394 34.3585 52.5428C34.1911 52.9623 34.0953 53.95 33.9482 54.0955C33.0221 54.1406 31.7684 54.1148 30.828 54.1052C30.7559 53.4148 30.8773 52.6933 31.0608 52.0283C31.9362 48.855 34.7797 47.5296 37.0679 45.5193C38.3701 44.3744 39.5901 43.0857 40.4339 41.5587C44.7441 33.7598 40.5216 24.3816 32.1686 21.7813C31.7621 21.6548 30.9203 21.498 30.6045 21.3173C30.5024 21.1437 30.4974 20.8488 30.5024 20.6433C30.5201 19.9173 30.4535 19.1669 30.537 18.4469C30.5467 18.3634 30.6041 18.3307 30.6614 18.2707Z" fill="white"/>
<path d="M25.3265 13.1417C29.6544 12.9867 33.3008 13.6383 37.2058 15.6063C38.0972 16.0554 39.1616 16.6485 39.97 17.2285C39.9586 18.3956 39.986 19.5687 39.9527 20.7322C35.9521 18.0342 32.7092 16.5984 27.8103 16.3025C24.1778 16.0043 19.7278 17.0983 16.5199 18.7772C15.2457 19.4441 14.4156 20.0474 13.2377 20.7432C13.1793 19.8038 13.2255 18.2556 13.2216 17.2754C13.8902 16.8011 14.9661 16.1924 15.7 15.816C18.6829 14.252 21.9643 13.3404 25.3265 13.1417Z" fill="white"/>
<path d="M19.619 55.7641C20.087 55.7333 20.736 55.7527 21.2234 55.7527L24.1255 55.7532C25.1655 55.7532 33.7289 55.6739 34.0789 55.8118C34.3121 55.9037 34.4917 56.0897 34.5971 56.3144C34.7085 56.5536 34.7371 56.8521 34.6351 57.0992C34.5002 57.4261 34.2492 57.5808 33.9363 57.704C33.3848 57.747 32.6177 57.7234 32.0459 57.7229L28.6828 57.7238C25.8334 57.725 22.9777 57.7297 20.1281 57.7221C19.983 57.7031 19.5897 57.7196 19.4687 57.6491C18.5785 57.13 18.7542 56.1466 19.619 55.7641Z" fill="white"/>
<path d="M28.9328 28.478C29.6839 28.4593 30.2064 28.9805 29.9867 29.7382C29.7256 30.6407 29.4165 31.5254 29.1184 32.4162L27.5235 37.1873L26.3976 40.5344C26.2137 41.0801 26.021 41.6886 25.8021 42.2199C25.6765 42.5244 25.3324 42.6568 25.0433 42.7585C24.5401 42.785 24.0382 42.4894 23.9207 41.9855C23.8795 41.8088 23.9861 41.3749 24.0466 41.1935C24.4446 40.0005 24.8571 38.8123 25.2613 37.6214L27.1048 32.1145C27.3548 31.3759 27.5889 30.6297 27.8419 29.8923C28.089 29.17 28.1038 28.6782 28.9328 28.478Z" fill="#FEC303"/>
<path d="M32.2074 30.5078C32.8467 30.4838 33.3126 31.0343 33.7833 31.4312L35.4722 32.8586L37.0881 34.224C37.6372 34.6891 38.3397 35.1191 38.1845 35.9564C38.088 36.4443 37.552 36.8731 37.1737 37.1745C35.7205 38.3335 34.31 39.6442 32.834 40.7672C32.6286 40.8612 32.4351 40.9072 32.2069 40.8853C31.9501 40.8604 31.7144 40.733 31.5529 40.5323C31.3931 40.3345 31.3184 40.0811 31.3454 39.8281C31.4091 39.212 32.4026 38.5735 32.8758 38.1777L35.8036 35.7291C34.4339 34.4924 32.9268 33.3796 31.5765 32.1213C31.4909 32.0416 31.4028 31.8386 31.3724 31.7262C31.3032 31.4794 31.3395 31.215 31.4732 30.9963C31.6591 30.6893 31.8793 30.5927 32.2074 30.5078Z" fill="white"/>
<path d="M21.5148 30.5056C21.825 30.498 22.1537 30.6096 22.3536 30.8558C22.5198 31.061 22.5978 31.3238 22.5705 31.5865C22.5505 31.7802 22.4717 31.963 22.3446 32.1105C22.1139 32.3807 21.2371 33.0848 20.9049 33.3642L18.1103 35.7244L20.9346 38.0808C21.2896 38.376 22.073 38.9489 22.3227 39.2773C22.9727 40.1317 22.3312 40.9789 21.3074 40.8604C20.8405 40.6668 19.4244 39.3979 18.9539 39.0065L17.0963 37.4592C16.6906 37.1205 15.8636 36.5447 15.7555 36.0376C15.6832 35.6846 15.7585 35.3173 15.9639 35.0211C16.134 34.7801 17.7678 33.4283 18.095 33.1502L19.8934 31.624C20.3323 31.2522 20.9666 30.6094 21.5148 30.5056Z" fill="white"/>
<path d="M20.8427 59.0091C22.0165 58.9682 32.5772 58.9395 32.8749 59.0627C33.1246 59.166 33.3156 59.3604 33.4054 59.6159C33.4919 59.8614 33.5024 60.2156 33.3742 60.4496C33.2275 60.717 32.9723 60.8688 32.6906 60.9557C32.161 60.9873 31.4517 60.9671 30.9119 60.9662L27.6395 60.9633C26.7181 60.9629 21.0538 61.048 20.6814 60.8912C20.4479 60.7938 20.2643 60.6053 20.1729 60.3695C20.0703 60.1013 20.0821 59.8028 20.2055 59.5438C20.3469 59.2394 20.5419 59.128 20.8427 59.0091Z" fill="white"/>
<path d="M8.18856 11.1767C8.56636 11.3421 9.05755 11.5406 9.42 11.7175C9.45674 13.4316 9.40259 15.1949 9.43177 16.923C10.2622 17.5444 10.3704 18.3325 9.60682 19.0667C9.77023 19.7449 9.93806 20.4219 10.1103 21.0979C10.198 21.4433 10.5249 22.4865 10.3691 22.759C10.1304 22.8586 7.73489 22.8716 7.44274 22.8172C7.38593 22.8066 7.28266 22.7886 7.25377 22.735C7.09315 22.4373 7.88341 19.6093 8.01363 19.0657C7.92824 18.9931 7.81548 18.8834 7.74813 18.7941C7.55069 18.5282 7.46724 18.1946 7.51615 17.867C7.58801 17.4121 7.83719 17.1699 8.18113 16.9137L8.18856 11.1767Z" fill="#FEC303"/>
<path d="M22.3034 62.2541C24.0101 62.1875 26.094 62.2431 27.8225 62.2436L29.8817 62.2419C30.2233 62.2419 31.3598 62.1613 31.5293 62.4548C31.8738 63.0515 30.7934 63.7802 30.3797 64.0581C27.9258 65.451 24.3597 65.3835 22.2427 63.2856C21.9045 62.9503 21.8912 62.5404 22.3034 62.2541Z" fill="#FEC303"/>
<path d="M52.616 38.7637C52.737 38.7644 52.8197 38.7655 52.9365 38.8026C53.1473 38.8702 53.3211 39.0217 53.4164 39.2212C53.5707 39.5409 53.4455 39.9866 53.1338 40.1587C51.8911 40.8452 50.5952 41.4465 49.3318 42.0972C48.9105 42.314 48.4517 42.5548 48.0182 42.7361C47.0407 42.707 46.8674 41.6709 47.4696 41.3356C48.8097 40.5897 50.2494 39.9407 51.6157 39.2343C51.9341 39.0698 52.2833 38.8927 52.616 38.7637Z" fill="#FEC303"/>
<path d="M0.599974 38.7707C0.710038 38.7643 0.853797 38.759 0.9553 38.8056C2.54638 39.5367 4.10178 40.3569 5.66747 41.1412C6.18856 41.4023 6.23141 41.439 6.39988 41.9804C6.257 42.4139 6.2137 42.5316 5.79183 42.723C5.67046 42.7302 5.50102 42.7403 5.38721 42.688C3.93331 42.015 2.52997 41.2572 1.08889 40.5504C0.604909 40.313 -0.220064 40.0043 0.0547156 39.2841C0.162587 39.0014 0.330634 38.8881 0.599974 38.7707Z" fill="#FEC303"/>
<path d="M46.6215 45.174C46.8054 45.1626 46.9724 45.1875 47.1529 45.2225C48.2168 45.4287 49.2765 45.6399 50.3384 45.8597C50.9022 45.9925 51.5099 46.0638 52.0568 46.2539C52.4056 46.3754 52.6092 46.752 52.4899 47.1066C52.3727 47.4528 52.2546 47.5359 51.9451 47.7016C51.6604 47.724 50.2157 47.4018 49.8644 47.331C48.8962 47.1357 47.8795 46.9354 46.91 46.7271C46.6401 46.655 46.2896 46.6107 46.1585 46.3227C45.9046 45.7652 46.1218 45.4122 46.6215 45.174Z" fill="#FEC303"/>
<path d="M6.55612 45.1832C6.95762 45.1347 7.31408 45.3473 7.42056 45.7458C7.4742 45.9528 7.43587 46.1734 7.31539 46.3501C7.0226 46.7861 5.86895 46.8882 5.34086 46.9944L1.87507 47.6894C0.960738 47.8556 0.687181 46.5436 1.45067 46.2485C1.89236 46.0781 2.66791 45.9621 3.15151 45.8655L6.55612 45.1832Z" fill="#FEC303"/>
<path d="M43.9117 48.6319C44.1786 48.6146 44.4152 48.6235 44.6273 48.8234C45.6811 49.8144 46.6957 50.8513 47.7399 51.8537C47.8769 52.0279 48.202 52.2615 48.2936 52.4626C48.536 52.9961 48.208 53.3444 47.8191 53.5557C47.2018 53.6282 46.88 53.1766 46.4393 52.7258C45.4787 51.7441 44.3237 50.7611 43.444 49.7136C43.1492 49.3627 43.5296 48.8423 43.9117 48.6319Z" fill="#FEC303"/>
<path d="M9.16629 48.6311C9.96124 48.5708 10.4433 49.3383 9.8933 49.9147C8.96417 50.888 7.97056 51.8132 7.01595 52.7629C6.77761 52.9999 6.39715 53.3988 6.12401 53.5557C5.27897 53.6776 4.81134 52.8417 5.36179 52.2602C6.25116 51.3207 7.23481 50.4494 8.14425 49.5259C8.40976 49.256 8.84263 48.7926 9.16629 48.6311Z" fill="#FEC303"/>
<path d="M83.4344 33.004C80.3144 33.004 77.8424 32.14 76.0184 30.412C74.1944 28.66 73.2824 26.164 73.2824 22.924V16.876C73.2824 13.636 74.1944 11.152 76.0184 9.424C77.8424 7.672 80.3144 6.796 83.4344 6.796C86.5304 6.796 88.9184 7.648 90.5984 9.352C92.3024 11.032 93.1544 13.348 93.1544 16.3V16.516H88.4744V16.156C88.4744 14.668 88.0544 13.444 87.2144 12.484C86.3984 11.524 85.1384 11.044 83.4344 11.044C81.7544 11.044 80.4344 11.56 79.4744 12.592C78.5144 13.624 78.0344 15.028 78.0344 16.804V22.996C78.0344 24.748 78.5144 26.152 79.4744 27.208C80.4344 28.24 81.7544 28.756 83.4344 28.756C85.1384 28.756 86.3984 28.276 87.2144 27.316C88.0544 26.332 88.4744 25.108 88.4744 23.644V22.996H93.1544V23.5C93.1544 26.452 92.3024 28.78 90.5984 30.484C88.9184 32.164 86.5304 33.004 83.4344 33.004ZM106.098 33.004C102.93 33.004 100.41 32.14 98.5384 30.412C96.6664 28.66 95.7304 26.164 95.7304 22.924V16.876C95.7304 13.636 96.6664 11.152 98.5384 9.424C100.41 7.672 102.93 6.796 106.098 6.796C109.266 6.796 111.786 7.672 113.658 9.424C115.53 11.152 116.466 13.636 116.466 16.876V22.924C116.466 26.164 115.53 28.66 113.658 30.412C111.786 32.14 109.266 33.004 106.098 33.004ZM106.098 28.756C107.874 28.756 109.254 28.24 110.238 27.208C111.222 26.176 111.714 24.796 111.714 23.068V16.732C111.714 15.004 111.222 13.624 110.238 12.592C109.254 11.56 107.874 11.044 106.098 11.044C104.346 11.044 102.966 11.56 101.958 12.592C100.974 13.624 100.482 15.004 100.482 16.732V23.068C100.482 24.796 100.974 26.176 101.958 27.208C102.966 28.24 104.346 28.756 106.098 28.756ZM118.386 32.5V28.324H121.698V11.476H118.386V7.3H128.754C132.138 7.3 134.706 8.164 136.458 9.892C138.234 11.596 139.122 14.14 139.122 17.524V22.276C139.122 25.66 138.234 28.216 136.458 29.944C134.706 31.648 132.138 32.5 128.754 32.5H118.386ZM126.45 28.18H128.826C130.746 28.18 132.15 27.676 133.038 26.668C133.926 25.66 134.37 24.244 134.37 22.42V17.38C134.37 15.532 133.926 14.116 133.038 13.132C132.15 12.124 130.746 11.62 128.826 11.62H126.45V28.18ZM142.362 32.5V7.3H158.562V11.62H147.114V17.632H157.554V21.952H147.114V28.18H158.778V32.5H142.362ZM161.648 25.372V21.268H172.304V25.372H161.648Z" fill="white"/>
<path d="M185.107 33.004C183.379 33.004 181.807 32.62 180.391 31.852C178.999 31.06 177.883 29.92 177.043 28.432C176.227 26.92 175.819 25.084 175.819 22.924V16.876C175.819 13.636 176.731 11.152 178.555 9.424C180.379 7.672 182.851 6.796 185.971 6.796C189.067 6.796 191.455 7.624 193.135 9.28C194.839 10.912 195.691 13.132 195.691 15.94V16.084H191.011V15.796C191.011 14.908 190.819 14.104 190.435 13.384C190.075 12.664 189.523 12.1 188.779 11.692C188.035 11.26 187.099 11.044 185.971 11.044C184.291 11.044 182.971 11.56 182.011 12.592C181.051 13.624 180.571 15.028 180.571 16.804V22.996C180.571 24.748 181.051 26.164 182.011 27.244C182.971 28.3 184.315 28.828 186.043 28.828C187.771 28.828 189.031 28.372 189.823 27.46C190.615 26.548 191.011 25.396 191.011 24.004V23.644H185.035V19.612H195.691V32.5H191.299V30.088H190.651C190.483 30.496 190.207 30.928 189.823 31.384C189.463 31.84 188.911 32.224 188.167 32.536C187.423 32.848 186.403 33.004 185.107 33.004ZM199.511 32.5V7.3H215.711V11.62H204.263V17.632H214.703V21.952H204.263V28.18H215.927V32.5H199.511ZM218.725 32.5V7.3H227.761L232.765 29.26H233.413V7.3H238.093V32.5H229.057L224.053 10.54H223.405V32.5H218.725ZM242.122 32.5V7.3H246.874V32.5H242.122ZM260.614 33.004C258.55 33.004 256.774 32.632 255.286 31.888C253.822 31.12 252.694 30.04 251.902 28.648C251.134 27.232 250.75 25.564 250.75 23.644V7.3H255.502V23.788C255.502 25.324 255.934 26.536 256.798 27.424C257.686 28.312 258.958 28.756 260.614 28.756C262.27 28.756 263.53 28.312 264.394 27.424C265.282 26.536 265.726 25.324 265.726 23.788V7.3H270.478V23.644C270.478 25.564 270.082 27.232 269.29 28.648C268.522 30.04 267.394 31.12 265.906 31.888C264.442 32.632 262.678 33.004 260.614 33.004ZM283.11 33.004C281.166 33.004 279.45 32.656 277.962 31.96C276.474 31.264 275.31 30.268 274.47 28.972C273.63 27.676 273.21 26.116 273.21 24.292V23.284H277.89V24.292C277.89 25.804 278.358 26.944 279.294 27.712C280.23 28.456 281.502 28.828 283.11 28.828C284.742 28.828 285.954 28.504 286.746 27.856C287.562 27.208 287.97 26.38 287.97 25.372C287.97 24.676 287.766 24.112 287.358 23.68C286.974 23.248 286.398 22.9 285.63 22.636C284.886 22.348 283.974 22.084 282.894 21.844L282.066 21.664C280.338 21.28 278.85 20.8 277.602 20.224C276.378 19.624 275.43 18.844 274.758 17.884C274.11 16.924 273.786 15.676 273.786 14.14C273.786 12.604 274.146 11.296 274.866 10.216C275.61 9.112 276.642 8.272 277.962 7.696C279.306 7.096 280.878 6.796 282.678 6.796C284.478 6.796 286.074 7.108 287.466 7.732C288.882 8.332 289.986 9.244 290.778 10.468C291.594 11.668 292.002 13.18 292.002 15.004V16.084H287.322V15.004C287.322 14.044 287.13 13.276 286.746 12.7C286.386 12.1 285.858 11.668 285.162 11.404C284.466 11.116 283.638 10.972 282.678 10.972C281.238 10.972 280.17 11.248 279.474 11.8C278.802 12.328 278.466 13.06 278.466 13.996C278.466 14.62 278.622 15.148 278.934 15.58C279.27 16.012 279.762 16.372 280.41 16.66C281.058 16.948 281.886 17.2 282.894 17.416L283.722 17.596C285.522 17.98 287.082 18.472 288.402 19.072C289.746 19.672 290.79 20.464 291.534 21.448C292.278 22.432 292.65 23.692 292.65 25.228C292.65 26.764 292.254 28.12 291.462 29.296C290.694 30.448 289.59 31.36 288.15 32.032C286.734 32.68 285.054 33.004 283.11 33.004Z" fill="#FEC303"/>
<path d="M72.5044 56.5V46.7H74.0164V55.128H78.7344V56.5H72.5044ZM81.7996 56.5V46.7H87.9736V48.072H83.3116V50.886H87.5816V52.258H83.3116V55.128H88.0436V56.5H81.7996ZM90.5719 56.5L93.3719 46.7H96.0319L98.8179 56.5H97.2639L96.6199 54.19H92.7839L92.1399 56.5H90.5719ZM93.1619 52.79H96.2419L94.8139 47.638H94.5899L93.1619 52.79ZM101.826 56.5V46.7H105.942C106.548 46.7 107.08 46.8073 107.538 47.022C108.004 47.2273 108.364 47.526 108.616 47.918C108.877 48.31 109.008 48.7767 109.008 49.318V49.472C109.008 50.088 108.858 50.5827 108.56 50.956C108.27 51.32 107.916 51.5767 107.496 51.726V51.95C107.85 51.9687 108.135 52.09 108.35 52.314C108.564 52.5287 108.672 52.8413 108.672 53.252V56.5H107.146V53.462C107.146 53.21 107.08 53.0093 106.95 52.86C106.819 52.7107 106.609 52.636 106.32 52.636H103.338V56.5H101.826ZM103.338 51.264H105.774C106.315 51.264 106.735 51.1287 107.034 50.858C107.332 50.578 107.482 50.2 107.482 49.724V49.612C107.482 49.136 107.332 48.7627 107.034 48.492C106.744 48.212 106.324 48.072 105.774 48.072H103.338V51.264ZM112.351 56.5V46.7H115.263L117.923 55.492H118.147V46.7H119.645V56.5H116.733L114.073 47.694H113.849V56.5H112.351ZM131.95 56.696C131.212 56.696 130.559 56.5653 129.99 56.304C129.42 56.0427 128.972 55.66 128.646 55.156C128.328 54.6427 128.17 54.022 128.17 53.294V52.944H129.668V53.294C129.668 53.9847 129.873 54.5027 130.284 54.848C130.704 55.1933 131.259 55.366 131.95 55.366C132.65 55.366 133.177 55.2213 133.532 54.932C133.886 54.6333 134.064 54.2507 134.064 53.784C134.064 53.476 133.98 53.224 133.812 53.028C133.644 52.832 133.406 52.678 133.098 52.566C132.79 52.4447 132.421 52.3327 131.992 52.23L131.474 52.104C130.848 51.9547 130.302 51.7727 129.836 51.558C129.378 51.334 129.024 51.04 128.772 50.676C128.52 50.312 128.394 49.8453 128.394 49.276C128.394 48.6973 128.534 48.2027 128.814 47.792C129.103 47.3813 129.5 47.064 130.004 46.84C130.508 46.616 131.1 46.504 131.782 46.504C132.463 46.504 133.07 46.6207 133.602 46.854C134.143 47.0873 134.568 47.4327 134.876 47.89C135.184 48.3473 135.338 48.9213 135.338 49.612V50.116H133.84V49.612C133.84 49.192 133.751 48.8513 133.574 48.59C133.406 48.3287 133.168 48.1373 132.86 48.016C132.552 47.8947 132.192 47.834 131.782 47.834C131.184 47.834 130.718 47.96 130.382 48.212C130.055 48.4547 129.892 48.7953 129.892 49.234C129.892 49.5327 129.962 49.78 130.102 49.976C130.251 50.1627 130.466 50.3167 130.746 50.438C131.026 50.5593 131.376 50.6667 131.796 50.76L132.314 50.886C132.948 51.026 133.508 51.208 133.994 51.432C134.479 51.6467 134.862 51.9407 135.142 52.314C135.422 52.6873 135.562 53.168 135.562 53.756C135.562 54.344 135.412 54.8573 135.114 55.296C134.824 55.7347 134.409 56.08 133.868 56.332C133.326 56.5747 132.687 56.696 131.95 56.696ZM138.829 56.5V46.7H141.671L143.813 55.492H144.037L146.179 46.7H149.021V56.5H147.551V47.764H147.327L145.199 56.5H142.651L140.523 47.764H140.299V56.5H138.829ZM152.017 56.5L154.817 46.7H157.477L160.263 56.5H158.709L158.065 54.19H154.229L153.585 56.5H152.017ZM154.607 52.79H157.687L156.259 47.638H156.035L154.607 52.79ZM163.271 56.5V46.7H167.387C167.994 46.7 168.526 46.8073 168.983 47.022C169.45 47.2273 169.809 47.526 170.061 47.918C170.322 48.31 170.453 48.7767 170.453 49.318V49.472C170.453 50.088 170.304 50.5827 170.005 50.956C169.716 51.32 169.361 51.5767 168.941 51.726V51.95C169.296 51.9687 169.58 52.09 169.795 52.314C170.01 52.5287 170.117 52.8413 170.117 53.252V56.5H168.591V53.462C168.591 53.21 168.526 53.0093 168.395 52.86C168.264 52.7107 168.054 52.636 167.765 52.636H164.783V56.5H163.271ZM164.783 51.264H167.219C167.76 51.264 168.18 51.1287 168.479 50.858C168.778 50.578 168.927 50.2 168.927 49.724V49.612C168.927 49.136 168.778 48.7627 168.479 48.492C168.19 48.212 167.77 48.072 167.219 48.072H164.783V51.264ZM175.984 56.5V48.072H172.974V46.7H180.506V48.072H177.496V56.5H175.984ZM188.801 53.63C188.474 53.63 188.199 53.5227 187.975 53.308C187.76 53.0933 187.653 52.818 187.653 52.482C187.653 52.146 187.76 51.8753 187.975 51.67C188.199 51.4553 188.474 51.348 188.801 51.348C189.127 51.348 189.398 51.4553 189.613 51.67C189.837 51.8847 189.949 52.1553 189.949 52.482C189.949 52.818 189.837 53.0933 189.613 53.308C189.398 53.5227 189.127 53.63 188.801 53.63ZM201.821 56.696C200.626 56.696 199.679 56.36 198.979 55.688C198.279 55.0067 197.929 54.0267 197.929 52.748V50.452C197.929 49.1733 198.279 48.198 198.979 47.526C199.679 46.8447 200.626 46.504 201.821 46.504C202.997 46.504 203.902 46.8307 204.537 47.484C205.181 48.1373 205.503 49.0287 205.503 50.158V50.242H204.005V50.116C204.005 49.4533 203.823 48.912 203.459 48.492C203.104 48.072 202.558 47.862 201.821 47.862C201.074 47.862 200.491 48.0907 200.071 48.548C199.651 48.996 199.441 49.6213 199.441 50.424V52.776C199.441 53.5693 199.651 54.1947 200.071 54.652C200.491 55.1093 201.074 55.338 201.821 55.338C202.558 55.338 203.104 55.128 203.459 54.708C203.823 54.2787 204.005 53.7373 204.005 53.084V52.846H205.503V53.042C205.503 54.1713 205.181 55.0627 204.537 55.716C203.902 56.3693 202.997 56.696 201.821 56.696ZM212.539 56.696C211.335 56.696 210.378 56.36 209.669 55.688C208.959 55.0067 208.605 54.0267 208.605 52.748V50.452C208.605 49.1733 208.959 48.198 209.669 47.526C210.378 46.8447 211.335 46.504 212.539 46.504C213.743 46.504 214.699 46.8447 215.409 47.526C216.127 48.198 216.487 49.1733 216.487 50.452V52.748C216.487 54.0267 216.127 55.0067 215.409 55.688C214.699 56.36 213.743 56.696 212.539 56.696ZM212.539 55.338C213.313 55.338 213.911 55.114 214.331 54.666C214.751 54.2087 214.961 53.588 214.961 52.804V50.396C214.961 49.612 214.751 48.996 214.331 48.548C213.911 48.0907 213.313 47.862 212.539 47.862C211.783 47.862 211.19 48.0907 210.761 48.548C210.331 48.996 210.117 49.612 210.117 50.396V52.804C210.117 53.588 210.331 54.2087 210.761 54.666C211.19 55.114 211.783 55.338 212.539 55.338ZM219.265 56.5V55.156H220.581V48.044H219.265V46.7H223.185C224.491 46.7 225.49 47.0313 226.181 47.694C226.881 48.3567 227.231 49.3553 227.231 50.69V52.524C227.231 53.8587 226.881 54.8573 226.181 55.52C225.49 56.1733 224.491 56.5 223.185 56.5H219.265ZM222.107 55.128H223.199C224.048 55.128 224.678 54.9133 225.089 54.484C225.499 54.0547 225.705 53.4153 225.705 52.566V50.634C225.705 49.7753 225.499 49.136 225.089 48.716C224.678 48.296 224.048 48.086 223.199 48.086H222.107V55.128ZM230.619 56.5V46.7H236.793V48.072H232.131V50.886H236.401V52.258H232.131V55.128H236.863V56.5H230.619ZM245.004 56.5V55.156H246.32V48.044H245.004V46.7H249.974C250.562 46.7 251.075 46.8027 251.514 47.008C251.952 47.204 252.293 47.4887 252.536 47.862C252.788 48.226 252.914 48.66 252.914 49.164V49.304C252.914 49.752 252.83 50.1207 252.662 50.41C252.494 50.6993 252.288 50.9233 252.046 51.082C251.812 51.2407 251.588 51.3527 251.374 51.418V51.642C251.588 51.698 251.817 51.81 252.06 51.978C252.312 52.1367 252.522 52.3607 252.69 52.65C252.867 52.9393 252.956 53.3173 252.956 53.784V53.924C252.956 54.4653 252.83 54.9273 252.578 55.31C252.326 55.6927 251.976 55.9867 251.528 56.192C251.089 56.3973 250.58 56.5 250.002 56.5H245.004ZM247.846 55.128H249.82C250.324 55.128 250.72 55.0067 251.01 54.764C251.299 54.5213 251.444 54.1853 251.444 53.756V53.63C251.444 53.2007 251.299 52.8647 251.01 52.622C250.73 52.3793 250.333 52.258 249.82 52.258H247.846V55.128ZM247.846 50.872H249.82C250.296 50.872 250.678 50.7553 250.968 50.522C251.257 50.2793 251.402 49.9527 251.402 49.542V49.402C251.402 48.9913 251.257 48.6693 250.968 48.436C250.688 48.1933 250.305 48.072 249.82 48.072H247.846V50.872ZM256.331 56.5V46.7H262.505V48.072H257.843V50.886H262.113V52.258H257.843V55.128H262.575V56.5H256.331ZM268.169 56.5V48.072H265.159V46.7H272.691V48.072H269.681V56.5H268.169ZM278.08 56.5V48.072H275.07V46.7H282.602V48.072H279.592V56.5H278.08ZM285.652 56.5V46.7H291.826V48.072H287.164V50.886H291.434V52.258H287.164V55.128H291.896V56.5H285.652ZM295.153 56.5V46.7H299.269C299.875 46.7 300.407 46.8073 300.865 47.022C301.331 47.2273 301.691 47.526 301.943 47.918C302.204 48.31 302.335 48.7767 302.335 49.318V49.472C302.335 50.088 302.185 50.5827 301.887 50.956C301.597 51.32 301.243 51.5767 300.823 51.726V51.95C301.177 51.9687 301.462 52.09 301.677 52.314C301.891 52.5287 301.999 52.8413 301.999 53.252V56.5H300.473V53.462C300.473 53.21 300.407 53.0093 300.277 52.86C300.146 52.7107 299.936 52.636 299.647 52.636H296.665V56.5H295.153ZM296.665 51.264H299.101C299.642 51.264 300.062 51.1287 300.361 50.858C300.659 50.578 300.809 50.2 300.809 49.724V49.612C300.809 49.136 300.659 48.7627 300.361 48.492C300.071 48.212 299.651 48.072 299.101 48.072H296.665V51.264Z" fill="white"/>
</svg>
