<svg width="205" height="102" viewBox="0 0 205 102" fill="none" xmlns="http://www.w3.org/2000/svg">
<path d="M9.44829 26.3962C8.81126 26.121 6.89361 25.4202 6.59821 24.9181C6.52989 24.5358 6.8489 24.377 7.14362 24.2416C11.4973 22.2408 15.8555 20.2495 20.2135 18.2578L26.8771 15.2228C28.0429 14.6911 29.2013 14.1239 30.3804 13.6229C30.5716 13.5416 30.7915 13.4882 31.0008 13.5022C31.4518 13.5325 36.9458 16.1615 37.8591 16.581L51.0254 22.6236C51.6132 22.8957 54.773 24.2324 55.007 24.5597C55.0766 24.6571 55.1267 24.7604 55.1014 24.8832C55.0596 25.0836 54.9336 25.1872 54.7618 25.2788C53.7064 25.8418 52.5328 26.2709 51.4351 26.7537C49.6644 27.5324 47.8996 28.3548 46.1046 29.0746C46.109 29.9482 46.107 30.8219 46.0983 31.6954C44.4775 30.7199 43.2722 30.0332 41.5167 29.3052C35.9517 27.036 29.8106 26.588 23.9753 28.0256C21.7226 28.5905 19.5447 29.4199 17.4869 30.4967C16.7352 30.8886 15.9931 31.3692 15.2718 31.7418C15.2708 30.8456 15.2898 29.8614 15.2639 28.975L10.8692 27.0202C10.451 26.816 9.88421 26.587 9.44829 26.3962Z" fill="white"/>
<path d="M26.3673 34.5937C26.5257 34.5666 26.5467 34.5943 26.6525 34.6793C26.7534 34.9853 26.6998 37.6046 26.693 38.079C26.4277 38.1833 25.9055 38.3017 25.6138 38.3794C25.0297 38.5317 24.4534 38.7128 23.8871 38.9218C20.6129 40.1504 17.5311 42.5238 15.6246 45.4674C13.9789 48.0109 13.1237 50.985 13.1672 54.0142C13.1712 56.1801 13.6377 58.3201 14.5352 60.2914C15.5803 62.5511 16.8282 64.0059 18.6375 65.6613C21.487 68.2679 25.2303 69.8648 26.0943 74.0143C26.1735 74.3939 26.3833 75.5544 26.1881 75.8541C25.884 75.9884 23.3867 75.9281 22.8681 75.9295C22.7511 75.9285 22.7558 75.9217 22.6391 75.8935C22.5106 75.7612 22.475 75.2644 22.4357 75.0585C22.3689 74.6951 22.2651 74.3394 22.126 73.9968C21.8595 73.3297 21.4759 72.7157 20.9933 72.1838C20.0967 71.1893 18.877 70.3636 17.8003 69.5661C13.4283 66.3284 10.5355 62.2324 9.60662 56.8139C7.6876 45.6209 15.504 36.4138 26.3673 34.5937Z" fill="#FEC303"/>
<path d="M35.3785 34.5816C36.1819 34.6728 37.1769 34.9184 37.9608 35.1441C41.3897 36.1042 44.5179 37.9224 47.0496 40.427C50.5252 43.8562 52.473 48.5411 52.4525 53.4238C52.4087 59.9216 49.5316 65.2443 44.4323 69.1291C43.3214 69.9748 41.9473 70.9158 41.0238 71.9284C40.4316 72.5692 39.964 73.3147 39.6443 74.1263C39.4512 74.6104 39.3407 75.75 39.1709 75.9178C38.1024 75.9699 36.6558 75.9402 35.5707 75.929C35.4875 75.1325 35.6276 74.3 35.8393 73.5326C36.8494 69.8711 40.1304 68.3418 42.7706 66.0223C44.2732 64.7013 45.6808 63.2143 46.6545 61.4524C51.6278 52.4537 46.7557 41.6326 37.1175 38.6322C36.6485 38.4863 35.6773 38.3054 35.3128 38.0969C35.1951 37.8966 35.1892 37.5563 35.1951 37.3192C35.2155 36.4815 35.1386 35.6156 35.235 34.7849C35.2462 34.6886 35.3123 34.6509 35.3785 34.5816Z" fill="white"/>
<path d="M29.2229 28.6635C34.2166 28.4847 38.4241 29.2366 42.9298 31.5072C43.9584 32.0255 45.1865 32.7098 46.1193 33.379C46.1061 34.7256 46.1378 36.0793 46.0993 37.4218C41.4832 34.3087 37.7414 32.652 32.0888 32.3106C27.8975 31.9666 22.7629 33.2288 19.0614 35.166C17.5912 35.9355 16.6335 36.6316 15.2743 37.4345C15.2069 36.3505 15.2602 34.5641 15.2558 33.4332C16.0271 32.8858 17.2686 32.1836 18.1155 31.7492C21.5573 29.9446 25.3435 28.8927 29.2229 28.6635Z" fill="white"/>
<path d="M22.6373 77.8432C23.1772 77.8077 23.9261 77.8301 24.4885 77.8301L27.8371 77.8306C29.0371 77.8306 38.9179 77.7391 39.3217 77.8982C39.5908 78.0043 39.7981 78.2189 39.9197 78.4782C40.0482 78.7541 40.0813 79.0986 39.9635 79.3837C39.8078 79.7608 39.5183 79.9394 39.1573 80.0815C38.5208 80.1311 37.6357 80.1039 36.9759 80.1034L33.0955 80.1044C29.8077 80.1058 26.5127 80.1112 23.2247 80.1024C23.0572 80.0805 22.6034 80.0995 22.4638 80.0182C21.4367 79.4193 21.6394 78.2846 22.6373 77.8432Z" fill="white"/>
<path d="M33.384 46.3593C34.2506 46.3376 34.8535 46.9391 34.6 47.8133C34.2988 48.8546 33.9421 49.8754 33.5981 50.9033L31.7579 56.4084L30.4587 60.2705C30.2466 60.9001 30.0242 61.6022 29.7717 62.2153C29.6267 62.5666 29.2297 62.7194 28.8961 62.8367C28.3154 62.8673 27.7363 62.5263 27.6008 61.9448C27.5533 61.7409 27.6763 61.2402 27.746 61.031C28.2052 59.6545 28.6812 58.2834 29.1476 56.9093L31.2747 50.5552C31.5632 49.7029 31.8333 48.842 32.1252 47.9912C32.4104 47.1576 32.4274 46.5902 33.384 46.3593Z" fill="#FEC303"/>
<path d="M37.1623 48.7013C37.9 48.6737 38.4376 49.3088 38.9807 49.7668L40.9294 51.4138L42.794 52.9892C43.4275 53.5259 44.2381 54.022 44.0591 54.9881C43.9476 55.5511 43.3292 56.0459 42.8927 56.3937C41.216 57.731 39.5884 59.2433 37.8854 60.5391C37.6484 60.6476 37.4251 60.7006 37.1618 60.6753C36.8655 60.6466 36.5935 60.4996 36.4072 60.268C36.2227 60.0398 36.1366 59.7474 36.1678 59.4555C36.2412 58.7446 37.3876 58.0079 37.9335 57.5512L41.3119 54.7259C39.7315 53.2989 37.9924 52.0149 36.4344 50.5631C36.3356 50.4711 36.2339 50.2369 36.1989 50.1071C36.1191 49.8224 36.1609 49.5173 36.3152 49.265C36.5298 48.9107 36.7838 48.7993 37.1623 48.7013Z" fill="white"/>
<path d="M24.8247 48.6987C25.1827 48.69 25.562 48.8187 25.7926 49.1028C25.9844 49.3396 26.0744 49.6429 26.0429 49.946C26.0199 50.1694 25.9289 50.3804 25.7823 50.5505C25.5161 50.8623 24.5043 51.6747 24.1211 51.9972L20.8965 54.7205L24.1553 57.4394C24.5649 57.78 25.4688 58.4411 25.757 58.82C26.5069 59.8058 25.7668 60.7833 24.5855 60.6466C24.0467 60.4232 22.4128 58.9591 21.8699 58.5075L19.7265 56.7221C19.2584 56.3314 18.3041 55.6669 18.1794 55.0818C18.096 54.6745 18.1829 54.2507 18.4199 53.9089C18.6162 53.6309 20.5013 52.0711 20.8789 51.7502L22.9539 49.9892C23.4604 49.5603 24.1922 48.8185 24.8247 48.6987Z" fill="white"/>
<path d="M24.0493 81.5874C25.4036 81.5402 37.589 81.5072 37.9326 81.6492C38.2206 81.7684 38.441 81.9928 38.5447 82.2876C38.6444 82.5708 38.6566 82.9795 38.5087 83.2496C38.3393 83.5581 38.045 83.7332 37.7199 83.8335C37.1088 83.87 36.2904 83.8466 35.6675 83.8456L31.8917 83.8422C30.8285 83.8417 24.2928 83.94 23.8631 83.759C23.5937 83.6466 23.3818 83.4291 23.2764 83.1571C23.158 82.8477 23.1716 82.5032 23.314 82.2044C23.4772 81.8531 23.7022 81.7246 24.0493 81.5874Z" fill="white"/>
<path d="M9.44837 26.3962C9.88429 26.587 10.4511 26.816 10.8693 27.0202C10.9117 28.998 10.8492 31.0326 10.8828 33.0265C11.8411 33.7436 11.9659 34.6528 11.0848 35.5001C11.2734 36.2825 11.467 37.0637 11.6658 37.8437C11.767 38.2422 12.1442 39.446 11.9644 39.7604C11.689 39.8753 8.92491 39.8903 8.58781 39.8275C8.52226 39.8153 8.4031 39.7946 8.36977 39.7327C8.18444 39.3892 9.09628 36.1261 9.24654 35.4989C9.148 35.4152 9.01789 35.2885 8.94019 35.1856C8.71237 34.8787 8.61608 34.4938 8.67252 34.1158C8.75543 33.5908 9.04295 33.3114 9.4398 33.0158L9.44837 26.3962Z" fill="#FEC303"/>
<path d="M25.7346 85.3316C27.7039 85.2548 30.1084 85.319 32.1028 85.3195L34.4788 85.3175C34.8729 85.3175 36.1843 85.2246 36.3799 85.5633C36.7774 86.2518 35.5308 87.0926 35.0535 87.4132C32.2221 89.0204 28.1072 88.9425 25.6646 86.5218C25.2743 86.135 25.259 85.662 25.7346 85.3316Z" fill="#FEC303"/>
<path d="M60.7107 58.2274C60.8503 58.2282 60.9457 58.2294 61.0805 58.2722C61.3238 58.3502 61.5242 58.525 61.6342 58.7553C61.8123 59.1241 61.6678 59.6384 61.3082 59.8369C59.8743 60.6291 58.379 61.3229 56.9212 62.0737C56.4351 62.3238 55.9057 62.6017 55.4055 62.8109C54.2776 62.7773 54.0777 61.5818 54.7725 61.195C56.3188 60.3342 57.98 59.5854 59.5565 58.7704C59.9239 58.5805 60.3268 58.3762 60.7107 58.2274Z" fill="#FEC303"/>
<path d="M0.692278 58.2355C0.819275 58.228 0.98515 58.2219 1.10227 58.2757C2.93813 59.1192 4.73282 60.0656 6.53939 60.9707C7.14065 61.2718 7.19008 61.3142 7.38447 61.9389C7.21962 62.4391 7.16965 62.5749 6.68288 62.7958C6.54284 62.8041 6.34733 62.8158 6.21601 62.7554C4.53843 61.9788 2.9192 61.1045 1.25642 60.289C0.697972 60.015 -0.253921 59.6588 0.0631334 58.8278C0.1876 58.5016 0.381501 58.3709 0.692278 58.2355Z" fill="#FEC303"/>
<path d="M53.794 65.6238C54.0062 65.6107 54.1989 65.6394 54.4071 65.6797C55.6348 65.9177 56.8575 66.1615 58.0827 66.415C58.7333 66.5682 59.4344 66.6505 60.0655 66.8699C60.4679 67.0101 60.7029 67.4446 60.5652 67.8538C60.43 68.2533 60.2937 68.3491 59.9366 68.5403C59.6081 68.5661 57.9411 68.1944 57.5358 68.1126C56.4186 67.8874 55.2455 67.6562 54.1268 67.4159C53.8154 67.3327 53.4111 67.2816 53.2598 66.9492C52.9668 66.306 53.2174 65.8987 53.794 65.6238Z" fill="#FEC303"/>
<path d="M7.56475 65.6345C8.02802 65.5786 8.43932 65.8238 8.56218 66.2836C8.62407 66.5225 8.57985 66.777 8.44083 66.9809C8.103 67.484 6.77187 67.6017 6.16253 67.7244L2.16354 68.5262C1.10854 68.718 0.792901 67.2042 1.67385 66.8636C2.18349 66.667 3.07836 66.5332 3.63636 66.4218L7.56475 65.6345Z" fill="#FEC303"/>
<path d="M50.6673 69.6137C50.9753 69.5938 51.2483 69.604 51.493 69.8346C52.709 70.9781 53.8797 72.1746 55.0845 73.3312C55.2426 73.5322 55.6178 73.8017 55.7233 74.0338C56.0031 74.6493 55.6246 75.0513 55.1759 75.295C54.4636 75.3787 54.0923 74.8576 53.5839 74.3374C52.4754 73.2047 51.1427 72.0705 50.1277 70.8618C49.7876 70.457 50.2265 69.8565 50.6673 69.6137Z" fill="#FEC303"/>
<path d="M10.5765 69.6128C11.4937 69.5432 12.05 70.4288 11.4153 71.0939C10.3432 72.2169 9.19676 73.2845 8.0953 74.3802C7.82028 74.6537 7.38129 75.114 7.06614 75.295C6.09108 75.4356 5.55152 74.4712 6.18665 73.8002C7.21284 72.7162 8.34783 71.7109 9.39718 70.6453C9.70353 70.3339 10.203 69.7991 10.5765 69.6128Z" fill="#FEC303"/>
<path d="M91.6624 30.504C88.5424 30.504 86.0704 29.64 84.2464 27.912C82.4224 26.16 81.5104 23.664 81.5104 20.424V14.376C81.5104 11.136 82.4224 8.652 84.2464 6.924C86.0704 5.172 88.5424 4.296 91.6624 4.296C94.7585 4.296 97.1465 5.148 98.8264 6.852C100.53 8.532 101.382 10.848 101.382 13.8V14.016H96.7025V13.656C96.7025 12.168 96.2825 10.944 95.4424 9.984C94.6264 9.024 93.3665 8.544 91.6624 8.544C89.9825 8.544 88.6625 9.06 87.7024 10.092C86.7424 11.124 86.2624 12.528 86.2624 14.304V20.496C86.2624 22.248 86.7424 23.652 87.7024 24.708C88.6625 25.74 89.9825 26.256 91.6624 26.256C93.3665 26.256 94.6264 25.776 95.4424 24.816C96.2825 23.832 96.7025 22.608 96.7025 21.144V20.496H101.382V21C101.382 23.952 100.53 26.28 98.8264 27.984C97.1465 29.664 94.7585 30.504 91.6624 30.504ZM114.326 30.504C111.158 30.504 108.638 29.64 106.766 27.912C104.894 26.16 103.958 23.664 103.958 20.424V14.376C103.958 11.136 104.894 8.652 106.766 6.924C108.638 5.172 111.158 4.296 114.326 4.296C117.494 4.296 120.014 5.172 121.886 6.924C123.758 8.652 124.694 11.136 124.694 14.376V20.424C124.694 23.664 123.758 26.16 121.886 27.912C120.014 29.64 117.494 30.504 114.326 30.504ZM114.326 26.256C116.102 26.256 117.482 25.74 118.466 24.708C119.45 23.676 119.942 22.296 119.942 20.568V14.232C119.942 12.504 119.45 11.124 118.466 10.092C117.482 9.06 116.102 8.544 114.326 8.544C112.574 8.544 111.194 9.06 110.186 10.092C109.202 11.124 108.71 12.504 108.71 14.232V20.568C108.71 22.296 109.202 23.676 110.186 24.708C111.194 25.74 112.574 26.256 114.326 26.256ZM126.614 30V25.824H129.926V8.976H126.614V4.8H136.982C140.366 4.8 142.934 5.664 144.686 7.392C146.462 9.096 147.35 11.64 147.35 15.024V19.776C147.35 23.16 146.462 25.716 144.686 27.444C142.934 29.148 140.366 30 136.982 30H126.614ZM134.678 25.68H137.054C138.974 25.68 140.378 25.176 141.266 24.168C142.154 23.16 142.598 21.744 142.598 19.92V14.88C142.598 13.032 142.154 11.616 141.266 10.632C140.378 9.624 138.974 9.12 137.054 9.12H134.678V25.68ZM150.591 30V4.8H166.791V9.12H155.343V15.132H165.783V19.452H155.343V25.68H167.007V30H150.591ZM169.876 22.872V18.768H180.532V22.872H169.876Z" fill="white"/>
<path d="M90.7985 66.504C89.0704 66.504 87.4984 66.12 86.0824 65.352C84.6904 64.56 83.5744 63.42 82.7344 61.932C81.9184 60.42 81.5104 58.584 81.5104 56.424V50.376C81.5104 47.136 82.4224 44.652 84.2464 42.924C86.0704 41.172 88.5424 40.296 91.6624 40.296C94.7585 40.296 97.1465 41.124 98.8264 42.78C100.53 44.412 101.382 46.632 101.382 49.44V49.584H96.7025V49.296C96.7025 48.408 96.5105 47.604 96.1265 46.884C95.7664 46.164 95.2144 45.6 94.4705 45.192C93.7264 44.76 92.7904 44.544 91.6624 44.544C89.9825 44.544 88.6625 45.06 87.7024 46.092C86.7424 47.124 86.2624 48.528 86.2624 50.304V56.496C86.2624 58.248 86.7424 59.664 87.7024 60.744C88.6625 61.8 90.0065 62.328 91.7344 62.328C93.4624 62.328 94.7224 61.872 95.5144 60.96C96.3065 60.048 96.7025 58.896 96.7025 57.504V57.144H90.7265V53.112H101.382V66H96.9904V63.588H96.3424C96.1744 63.996 95.8984 64.428 95.5144 64.884C95.1544 65.34 94.6024 65.724 93.8584 66.036C93.1144 66.348 92.0944 66.504 90.7985 66.504ZM105.202 66V40.8H121.402V45.12H109.954V51.132H120.394V55.452H109.954V61.68H121.618V66H105.202ZM124.416 66V40.8H133.452L138.456 62.76H139.104V40.8H143.784V66H134.748L129.744 44.04H129.096V66H124.416ZM147.813 66V40.8H152.565V66H147.813ZM166.305 66.504C164.241 66.504 162.465 66.132 160.977 65.388C159.513 64.62 158.385 63.54 157.593 62.148C156.825 60.732 156.441 59.064 156.441 57.144V40.8H161.193V57.288C161.193 58.824 161.625 60.036 162.489 60.924C163.377 61.812 164.649 62.256 166.305 62.256C167.961 62.256 169.221 61.812 170.085 60.924C170.973 60.036 171.417 58.824 171.417 57.288V40.8H176.169V57.144C176.169 59.064 175.773 60.732 174.981 62.148C174.213 63.54 173.085 64.62 171.597 65.388C170.133 66.132 168.369 66.504 166.305 66.504ZM188.801 66.504C186.857 66.504 185.141 66.156 183.653 65.46C182.165 64.764 181.001 63.768 180.161 62.472C179.321 61.176 178.901 59.616 178.901 57.792V56.784H183.581V57.792C183.581 59.304 184.049 60.444 184.985 61.212C185.921 61.956 187.193 62.328 188.801 62.328C190.433 62.328 191.645 62.004 192.437 61.356C193.253 60.708 193.661 59.88 193.661 58.872C193.661 58.176 193.457 57.612 193.049 57.18C192.665 56.748 192.089 56.4 191.321 56.136C190.577 55.848 189.665 55.584 188.585 55.344L187.757 55.164C186.029 54.78 184.541 54.3 183.293 53.724C182.069 53.124 181.121 52.344 180.449 51.384C179.801 50.424 179.477 49.176 179.477 47.64C179.477 46.104 179.837 44.796 180.557 43.716C181.301 42.612 182.333 41.772 183.653 41.196C184.997 40.596 186.569 40.296 188.369 40.296C190.169 40.296 191.765 40.608 193.157 41.232C194.573 41.832 195.677 42.744 196.469 43.968C197.285 45.168 197.693 46.68 197.693 48.504V49.584H193.013V48.504C193.013 47.544 192.821 46.776 192.437 46.2C192.077 45.6 191.549 45.168 190.853 44.904C190.157 44.616 189.329 44.472 188.369 44.472C186.929 44.472 185.861 44.748 185.165 45.3C184.493 45.828 184.157 46.56 184.157 47.496C184.157 48.12 184.313 48.648 184.625 49.08C184.961 49.512 185.453 49.872 186.101 50.16C186.749 50.448 187.577 50.7 188.585 50.916L189.413 51.096C191.213 51.48 192.773 51.972 194.093 52.572C195.437 53.172 196.481 53.964 197.225 54.948C197.969 55.932 198.341 57.192 198.341 58.728C198.341 60.264 197.945 61.62 197.153 62.796C196.385 63.948 195.281 64.86 193.841 65.532C192.425 66.18 190.745 66.504 188.801 66.504Z" fill="#FEC303"/>
<path d="M80.6594 84V74.9H82.0634V82.726H86.4444V84H80.6594ZM89.4107 84V74.9H95.1437V76.174H90.8147V78.787H94.7797V80.061H90.8147V82.726H95.2087V84H89.4107ZM97.6765 84L100.276 74.9H102.746L105.333 84H103.89L103.292 81.855H99.7305L99.1325 84H97.6765ZM100.081 80.555H102.941L101.615 75.771H101.407L100.081 80.555ZM108.246 84V74.9H112.068C112.632 74.9 113.126 74.9997 113.55 75.199C113.984 75.3897 114.317 75.667 114.551 76.031C114.794 76.395 114.915 76.8283 114.915 77.331V77.474C114.915 78.046 114.777 78.5053 114.499 78.852C114.231 79.19 113.901 79.4283 113.511 79.567V79.775C113.841 79.7923 114.105 79.905 114.304 80.113C114.504 80.3123 114.603 80.6027 114.603 80.984V84H113.186V81.179C113.186 80.945 113.126 80.7587 113.004 80.62C112.883 80.4813 112.688 80.412 112.419 80.412H109.65V84H108.246ZM109.65 79.138H111.912C112.415 79.138 112.805 79.0123 113.082 78.761C113.36 78.501 113.498 78.15 113.498 77.708V77.604C113.498 77.162 113.36 76.8153 113.082 76.564C112.814 76.304 112.424 76.174 111.912 76.174H109.65V79.138ZM118.14 84V74.9H120.844L123.314 83.064H123.522V74.9H124.913V84H122.209L119.739 75.823H119.531V84H118.14ZM136.579 84.182C135.894 84.182 135.287 84.0607 134.759 83.818C134.23 83.5753 133.814 83.22 133.511 82.752C133.216 82.2753 133.069 81.699 133.069 81.023V80.698H134.46V81.023C134.46 81.6643 134.65 82.1453 135.032 82.466C135.422 82.7867 135.937 82.947 136.579 82.947C137.229 82.947 137.718 82.8127 138.048 82.544C138.377 82.2667 138.542 81.9113 138.542 81.478C138.542 81.192 138.464 80.958 138.308 80.776C138.152 80.594 137.931 80.451 137.645 80.347C137.359 80.2343 137.016 80.1303 136.618 80.035L136.137 79.918C135.556 79.7793 135.049 79.6103 134.616 79.411C134.191 79.203 133.862 78.93 133.628 78.592C133.394 78.254 133.277 77.8207 133.277 77.292C133.277 76.7547 133.407 76.2953 133.667 75.914C133.935 75.5327 134.304 75.238 134.772 75.03C135.24 74.822 135.79 74.718 136.423 74.718C137.055 74.718 137.619 74.8263 138.113 75.043C138.615 75.2597 139.01 75.5803 139.296 76.005C139.582 76.4297 139.725 76.9627 139.725 77.604V78.072H138.334V77.604C138.334 77.214 138.251 76.8977 138.087 76.655C137.931 76.4123 137.71 76.2347 137.424 76.122C137.138 76.0093 136.804 75.953 136.423 75.953C135.868 75.953 135.435 76.07 135.123 76.304C134.819 76.5293 134.668 76.8457 134.668 77.253C134.668 77.5303 134.733 77.76 134.863 77.942C135.001 78.1153 135.201 78.2583 135.461 78.371C135.721 78.4837 136.046 78.5833 136.436 78.67L136.917 78.787C137.506 78.917 138.026 79.086 138.477 79.294C138.927 79.4933 139.283 79.7663 139.543 80.113C139.803 80.4597 139.933 80.906 139.933 81.452C139.933 81.998 139.794 82.4747 139.517 82.882C139.248 83.2893 138.862 83.61 138.36 83.844C137.857 84.0693 137.263 84.182 136.579 84.182ZM143.086 84V74.9H145.725L147.714 83.064H147.922L149.911 74.9H152.55V84H151.185V75.888H150.977L149.001 84H146.635L144.659 75.888H144.451V84H143.086ZM155.453 84L158.053 74.9H160.523L163.11 84H161.667L161.069 81.855H157.507L156.909 84H155.453ZM157.858 80.555H160.718L159.392 75.771H159.184L157.858 80.555ZM166.023 84V74.9H169.845C170.408 74.9 170.902 74.9997 171.327 75.199C171.76 75.3897 172.094 75.667 172.328 76.031C172.57 76.395 172.692 76.8283 172.692 77.331V77.474C172.692 78.046 172.553 78.5053 172.276 78.852C172.007 79.19 171.678 79.4283 171.288 79.567V79.775C171.617 79.7923 171.881 79.905 172.081 80.113C172.28 80.3123 172.38 80.6027 172.38 80.984V84H170.963V81.179C170.963 80.945 170.902 80.7587 170.781 80.62C170.659 80.4813 170.464 80.412 170.196 80.412H167.427V84H166.023ZM167.427 79.138H169.689C170.191 79.138 170.581 79.0123 170.859 78.761C171.136 78.501 171.275 78.15 171.275 77.708V77.604C171.275 77.162 171.136 76.8153 170.859 76.564C170.59 76.304 170.2 76.174 169.689 76.174H167.427V79.138ZM177.948 84V76.174H175.153V74.9H182.147V76.174H179.352V84H177.948ZM190.089 81.335C189.785 81.335 189.53 81.2353 189.322 81.036C189.122 80.8367 189.023 80.581 189.023 80.269C189.023 79.957 189.122 79.7057 189.322 79.515C189.53 79.3157 189.785 79.216 190.089 79.216C190.392 79.216 190.643 79.3157 190.843 79.515C191.051 79.7143 191.155 79.9657 191.155 80.269C191.155 80.581 191.051 80.8367 190.843 81.036C190.643 81.2353 190.392 81.335 190.089 81.335ZM84.0394 99.182C82.9301 99.182 82.0504 98.87 81.4004 98.246C80.7504 97.6133 80.4254 96.7033 80.4254 95.516V93.384C80.4254 92.1967 80.7504 91.291 81.4004 90.667C82.0504 90.0343 82.9301 89.718 84.0394 89.718C85.1314 89.718 85.9721 90.0213 86.5614 90.628C87.1594 91.2347 87.4584 92.0623 87.4584 93.111V93.189H86.0674V93.072C86.0674 92.4567 85.8984 91.954 85.5604 91.564C85.2311 91.174 84.7241 90.979 84.0394 90.979C83.3461 90.979 82.8044 91.1913 82.4144 91.616C82.0244 92.032 81.8294 92.6127 81.8294 93.358V95.542C81.8294 96.2787 82.0244 96.8593 82.4144 97.284C82.8044 97.7087 83.3461 97.921 84.0394 97.921C84.7241 97.921 85.2311 97.726 85.5604 97.336C85.8984 96.9373 86.0674 96.4347 86.0674 95.828V95.607H87.4584V95.789C87.4584 96.8377 87.1594 97.6653 86.5614 98.272C85.9721 98.8787 85.1314 99.182 84.0394 99.182ZM94.112 99.182C92.994 99.182 92.1056 98.87 91.447 98.246C90.7883 97.6133 90.459 96.7033 90.459 95.516V93.384C90.459 92.1967 90.7883 91.291 91.447 90.667C92.1056 90.0343 92.994 89.718 94.112 89.718C95.23 89.718 96.1183 90.0343 96.777 90.667C97.4443 91.291 97.778 92.1967 97.778 93.384V95.516C97.778 96.7033 97.4443 97.6133 96.777 98.246C96.1183 98.87 95.23 99.182 94.112 99.182ZM94.112 97.921C94.8313 97.921 95.386 97.713 95.776 97.297C96.166 96.8723 96.361 96.296 96.361 95.568V93.332C96.361 92.604 96.166 92.032 95.776 91.616C95.386 91.1913 94.8313 90.979 94.112 90.979C93.41 90.979 92.8596 91.1913 92.461 91.616C92.0623 92.032 91.863 92.604 91.863 93.332V95.568C91.863 96.296 92.0623 96.8723 92.461 97.297C92.8596 97.713 93.41 97.921 94.112 97.921ZM100.477 99V97.752H101.699V91.148H100.477V89.9H104.117C105.331 89.9 106.258 90.2077 106.899 90.823C107.549 91.4383 107.874 92.3657 107.874 93.605V95.308C107.874 96.5473 107.549 97.4747 106.899 98.09C106.258 98.6967 105.331 99 104.117 99H100.477ZM103.116 97.726H104.13C104.919 97.726 105.504 97.5267 105.885 97.128C106.267 96.7293 106.457 96.1357 106.457 95.347V93.553C106.457 92.7557 106.267 92.162 105.885 91.772C105.504 91.382 104.919 91.187 104.13 91.187H103.116V97.726ZM111.141 99V89.9H116.874V91.174H112.545V93.787H116.51V95.061H112.545V97.726H116.939V99H111.141ZM124.738 99V97.752H125.96V91.148H124.738V89.9H129.353C129.899 89.9 130.376 89.9953 130.783 90.186C131.19 90.368 131.507 90.6323 131.732 90.979C131.966 91.317 132.083 91.72 132.083 92.188V92.318C132.083 92.734 132.005 93.0763 131.849 93.345C131.693 93.6137 131.502 93.8217 131.277 93.969C131.06 94.1163 130.852 94.2203 130.653 94.281V94.489C130.852 94.541 131.065 94.645 131.29 94.801C131.524 94.9483 131.719 95.1563 131.875 95.425C132.04 95.6937 132.122 96.0447 132.122 96.478V96.608C132.122 97.1107 132.005 97.5397 131.771 97.895C131.537 98.2503 131.212 98.5233 130.796 98.714C130.389 98.9047 129.916 99 129.379 99H124.738ZM127.377 97.726H129.21C129.678 97.726 130.046 97.6133 130.315 97.388C130.584 97.1627 130.718 96.8507 130.718 96.452V96.335C130.718 95.9363 130.584 95.6243 130.315 95.399C130.055 95.1737 129.687 95.061 129.21 95.061H127.377V97.726ZM127.377 93.774H129.21C129.652 93.774 130.007 93.6657 130.276 93.449C130.545 93.2237 130.679 92.9203 130.679 92.539V92.409C130.679 92.0277 130.545 91.7287 130.276 91.512C130.016 91.2867 129.661 91.174 129.21 91.174H127.377V93.774ZM135.376 99V89.9H141.109V91.174H136.78V93.787H140.745V95.061H136.78V97.726H141.174V99H135.376ZM146.489 99V91.174H143.694V89.9H150.688V91.174H147.893V99H146.489ZM155.811 99V91.174H153.016V89.9H160.01V91.174H157.215V99H155.811ZM162.963 99V89.9H168.696V91.174H164.367V93.787H168.332V95.061H164.367V97.726H168.761V99H162.963ZM171.905 99V89.9H175.727C176.29 89.9 176.784 89.9997 177.209 90.199C177.642 90.3897 177.976 90.667 178.21 91.031C178.452 91.395 178.574 91.8283 178.574 92.331V92.474C178.574 93.046 178.435 93.5053 178.158 93.852C177.889 94.19 177.56 94.4283 177.17 94.567V94.775C177.499 94.7923 177.763 94.905 177.963 95.113C178.162 95.3123 178.262 95.6027 178.262 95.984V99H176.845V96.179C176.845 95.945 176.784 95.7587 176.663 95.62C176.541 95.4813 176.346 95.412 176.078 95.412H173.309V99H171.905ZM173.309 94.138H175.571C176.073 94.138 176.463 94.0123 176.741 93.761C177.018 93.501 177.157 93.15 177.157 92.708V92.604C177.157 92.162 177.018 91.8153 176.741 91.564C176.472 91.304 176.082 91.174 175.571 91.174H173.309V94.138Z" fill="white"/>
</svg>
